<?xml version="1.0" standalone="no"?>
<!DOCTYPE svg PUBLIC "-//W3C//DTD SVG 20010904//EN"
 "http://www.w3.org/TR/2001/REC-SVG-20010904/DTD/svg10.dtd">
<svg version="1.0" xmlns="http://www.w3.org/2000/svg"
 width="800.000000pt" height="800.000000pt" viewBox="0 0 800.000000 800.000000"
 preserveAspectRatio="xMidYMid meet">
<metadata>
Created by potrace 1.11, written by Peter Selinger 2001-2013
</metadata>
<g transform="translate(0.000000,800.000000) scale(0.100000,-0.100000)"
fill="#000000" stroke="none">
<path d="M5930 6869 c-90 -48 -155 -82 -465 -245 -71 -37 -145 -75 -162 -83
-30 -14 -33 -19 -34 -61 -3 -141 -3 -2338 -1 -2401 l4 -77 211 98 c117 53 246
113 287 132 41 20 139 65 217 101 78 37 182 85 230 108 48 22 131 60 183 84
52 24 138 63 191 88 53 25 124 55 158 68 l61 24 0 905 0 905 -43 23 c-23 13
-121 64 -217 114 -96 50 -193 101 -215 113 -82 46 -295 155 -302 154 -5 0 -51
-23 -103 -50z"/>
<path d="M3731 6160 c-96 -50 -253 -132 -350 -183 -97 -50 -202 -105 -234
-122 l-57 -30 4 -1000 c3 -550 5 -1005 5 -1012 1 -6 10 -15 22 -18 11 -4 85
-38 165 -76 80 -38 147 -69 148 -69 2 0 59 -27 127 -59 250 -119 394 -183 414
-183 19 0 195 79 648 290 l87 41 0 48 c2 311 0 2046 -2 2048 -2 1 -57 30 -123
65 -66 35 -142 75 -170 90 -85 46 -502 260 -506 260 -2 0 -82 -41 -178 -90z"/>
<path d="M1815 5411 c-38 -21 -146 -83 -240 -138 -93 -55 -238 -140 -321 -189
l-152 -89 3 -115 c2 -63 4 -127 4 -142 1 -19 6 -28 17 -28 24 0 150 -55 549
-240 193 -89 438 -202 545 -252 107 -49 229 -106 270 -125 96 -46 179 -83 185
-83 5 0 -2 980 -7 984 -1 2 -160 97 -353 211 -192 114 -364 216 -381 226 -17
11 -35 19 -40 19 -5 0 -40 -18 -79 -39z"/>
<path d="M755 4695 c-160 -24 -308 -90 -435 -194 -138 -113 -227 -243 -286
-421 -27 -80 -28 -94 -29 -260 0 -198 10 -248 75 -386 44 -95 96 -169 175
-248 63 -62 97 -87 235 -171 227 -138 2988 -1728 3088 -1779 111 -56 174 -68
367 -72 210 -3 278 8 400 65 78 36 617 344 1585 903 261 151 495 286 520 300
25 14 128 74 230 133 102 59 259 150 350 202 577 333 672 402 770 551 108 164
152 324 146 527 -5 151 -26 237 -87 360 -154 307 -456 497 -789 497 -193 0
-211 -6 -740 -252 -157 -73 -314 -146 -350 -162 -36 -17 -112 -53 -169 -80
-57 -27 -152 -71 -210 -98 -58 -26 -151 -69 -206 -95 -55 -26 -201 -94 -325
-152 -304 -141 -311 -144 -425 -198 -55 -26 -167 -78 -250 -117 -82 -39 -192
-90 -244 -114 -51 -24 -97 -44 -102 -44 -26 0 -14 -28 38 -83 92 -99 133 -198
133 -322 0 -133 -39 -226 -134 -321 -69 -69 -137 -107 -226 -128 -68 -16 -171
-14 -228 5 -31 10 -789 360 -1145 528 -56 27 -123 58 -149 69 -218 100 -301
143 -291 153 13 13 142 -43 758 -329 237 -110 482 -223 545 -252 63 -29 142
-65 175 -80 154 -71 220 -83 325 -56 121 31 198 81 258 169 120 175 92 407
-65 552 -40 37 -282 161 -573 293 -25 11 -107 50 -184 86 -76 36 -139 66 -141
66 -2 0 -64 29 -140 65 -75 36 -138 65 -140 65 -2 0 -50 22 -107 49 -242 115
-360 170 -738 344 -30 14 -154 71 -275 127 -589 273 -673 305 -835 313 -41 2
-111 -2 -155 -8z"/>
</g>
</svg>
